{
	"addTime": "2017-11-03T11:29:30.977Z",
	"done": true,
	"endTime": "2017-11-03T11:29:35.896Z",
	"exitValue": 0,
	"file": "30012011_002.mp4",
	"id": "3b5154f859425d29",
	"inputPath": "/var/folders/j5/ct1pgwq10hs1010l9s6hrrgc0000gn/T",
	"running": false,
	"startTime": "2017-11-03T11:29:30.992Z",
	"command": "ffmpeg -i \"/var/folders/j5/ct1pgwq10hs1010l9s6hrrgc0000gn/T/30012011_002.mp4\" -stats -y -vf 'scale=-2:360' -codec:v libx264 -preset fast -tune film -level 3.0 -profile baseline -pix_fmt yuv420p -r 25 -vsync 2 -force_key_frames 'expr:gte(t,n_forced*2)' -b:v 500k -maxrate 500k -bufsize 1000k -codec:a aac -b:a 64k -ar 44100 -ac 2 \"/tmp/converted/3b5154f859425d29/30012011_002-360p.mp4\"",
	"completeCallback": "http://localhost:8291/mir/rsc/encoder/completeCallback",
	"errorStream": "ffmpeg version 3.3.4 Copyright (c) 2000-2017 the FFmpeg developers\n  built with Apple LLVM version 8.1.0 (clang-802.0.42)\n  configuration: --prefix=/opt/local --enable-swscale --enable-avfilter --enable-avresample --enable-libmp3lame --enable-libvorbis --enable-libopus --enable-libtheora --enable-libschroedinger --enable-libopenjpeg --enable-libmodplug --enable-libvpx --enable-libsoxr --enable-libspeex --enable-libass --enable-libbluray --enable-lzma --enable-gnutls --enable-fontconfig --enable-libfreetype --enable-libfribidi --disable-libxcb --disable-libxcb-shm --disable-libxcb-xfixes --disable-indev=jack --disable-outdev=xv --enable-audiotoolbox --enable-sdl2 --mandir=/opt/local/share/man --enable-shared --enable-pthreads --cc=/usr/bin/clang --enable-vda --enable-videotoolbox --arch=x86_64 --enable-yasm --enable-libx265 --enable-gpl --enable-postproc --enable-libx264 --enable-libxvid\n  libavutil      55. 58.100 / 55. 58.100\n  libavcodec     57. 89.100 / 57. 89.100\n  libavformat    57. 71.100 / 57. 71.100\n  libavdevice    57.  6.100 / 57.  6.100\n  libavfilter     6. 82.100 /  6. 82.100\n  libavresample   3.  5.  0 /  3.  5.  0\n  libswscale      4.  6.100 /  4.  6.100\n  libswresample   2.  7.100 /  2.  7.100\n  libpostproc    54.  5.100 / 54.  5.100\nInput #0, mov,mp4,m4a,3gp,3g2,mj2, from '/var/folders/j5/ct1pgwq10hs1010l9s6hrrgc0000gn/T/30012011_002.mp4':\n  Metadata:\n    major_brand     : isom\n    minor_version   : 512\n    compatible_brands: isomiso2avc1mp41\n    encoder         : Lavf56.15.102\n  Duration: 00:01:08.10, start: 0.000000, bitrate: 303 kb/s\n    Stream #0:0(und): Video: h264 (Main) (avc1 / 0x31637661), yuv420p, 320x240 [SAR 1:1 DAR 4:3], 261 kb/s, 30 fps, 30 tbr, 15360 tbn, 60 tbc (default)\n    Metadata:\n      handler_name    : VideoHandler\n    Stream #0:1(und): Audio: aac (LC) (mp4a / 0x6134706D), 22050 Hz, mono, fltp, 37 kb/s (default)\n    Metadata:\n      handler_name    : SoundHandler\nPlease use -profile:a or -profile:v, -profile is ambiguous\nStream mapping:\n  Stream #0:0 -> #0:0 (h264 (native) -> h264 (libx264))\n  Stream #0:1 -> #0:1 (aac (native) -> aac (native))\nPress [q] to stop, [?] for help\n[libx264 @ 0x7f940a801200] using SAR=1/1\n[libx264 @ 0x7f940a801200] using cpu capabilities: MMX2 SSE2Fast SSSE3 SSE4.2 AVX FMA3 AVX2 LZCNT BMI2\n[libx264 @ 0x7f940a801200] profile Constrained Baseline, level 3.0\n[libx264 @ 0x7f940a801200] 264 - core 148 - H.264/MPEG-4 AVC codec - Copyleft 2003-2016 - http://www.videolan.org/x264.html - options: cabac=0 ref=2 deblock=1:-1:-1 analyse=0x1:0x111 me=hex subme=6 psy=1 psy_rd=1.00:0.15 mixed_ref=1 me_range=16 chroma_me=1 trellis=1 8x8dct=0 cqm=0 deadzone=21,11 fast_pskip=1 chroma_qp_offset=-3 threads=11 lookahead_threads=1 sliced_threads=0 nr=0 decimate=1 interlaced=0 bluray_compat=0 constrained_intra=0 bframes=0 weightp=0 keyint=250 keyint_min=25 scenecut=40 intra_refresh=0 rc_lookahead=30 rc=cbr mbtree=1 bitrate=500 ratetol=1.0 qcomp=0.60 qpmin=0 qpmax=69 qpstep=4 vbv_maxrate=500 vbv_bufsize=1000 nal_hrd=none filler=0 ip_ratio=1.40 aq=1:1.00\nOutput #0, mp4, to '/tmp/converted/3b5154f859425d29/30012011_002-360p.mp4':\n  Metadata:\n    major_brand     : isom\n    minor_version   : 512\n    compatible_brands: isomiso2avc1mp41\n    encoder         : Lavf57.71.100\n    Stream #0:0(und): Video: h264 (libx264) ([33][0][0][0] / 0x0021), yuv420p, 480x360 [SAR 1:1 DAR 4:3], q=-1--1, 500 kb/s, 25 fps, 12800 tbn, 25 tbc (default)\n    Metadata:\n      handler_name    : VideoHandler\n      encoder         : Lavc57.89.100 libx264\n    Side data:\n      cpb: bitrate max/min/avg: 500000/0/500000 buffer size: 1000000 vbv_delay: -1\n    Stream #0:1(und): Audio: aac (LC) ([64][0][0][0] / 0x0040), 44100 Hz, stereo, fltp, 64 kb/s (default)\n    Metadata:\n      handler_name    : SoundHandler\n      encoder         : Lavc57.89.100 aac\nPast duration 0.666664 too large\nPast duration 0.833321 too large\nPast duration 0.666664 too large\nPast duration 0.833321 too large\nPast duration 0.666664 too large\nPast duration 0.833321 too large\nPast duration 0.666664 too large\nPast duration 0.833321 too large\nPast duration 0.666664 too large\nPast duration 0.833321 too large\nPast duration 0.666664 too large\nPast duration 0.833321 too large\nPast duration 0.666664 too large\nPast duration 0.833321 too large\nPast duration 0.666664 too large\nPast duration 0.833321 too large\nPast duration 0.666664 too large\nPast duration 0.833321 too large\nPast duration 0.666664 too large\nPast duration 0.833321 too large\nPast duration 0.666664 too large\nPast duration 0.833321 too large\nPast duration 0.666664 too large\nPast duration 0.833321 too large\nPast duration 0.666664 too large\nPast duration 0.833321 too large\nPast duration 0.666664 too large\nPast duration 0.833321 too large\nPast duration 0.666664 too large\nPast duration 0.833321 too large\nPast duration 0.666664 too large\nPast duration 0.833321 too large\nPast duration 0.666664 too large\nPast duration 0.833321 too large\nPast duration 0.666664 too large\nPast duration 0.833321 too large\nPast duration 0.666664 too large\nPast duration 0.833321 too large\nPast duration 0.666664 too large\nPast duration 0.833321 too large\nPast duration 0.666664 too large\nPast duration 0.833321 too large\nPast duration 0.666664 too large\nPast duration 0.833321 too large\nPast duration 0.666664 too large\nPast duration 0.833321 too large\nPast duration 0.666664 too large\nPast duration 0.833321 too large\nPast duration 0.666664 too large\nPast duration 0.833321 too large\nframe=  129 fps=0.0 q=30.0 size=     261kB time=00:00:05.31 bitrate= 402.8kbits/s dup=0 drop=24 speed=10.6x    \rPast duration 0.666664 too large\nPast duration 0.833321 too large\nPast duration 0.666664 too large\nPast duration 0.833321 too large\nPast duration 0.666664 too large\nPast duration 0.833321 too large\nPast duration 0.666664 too large\nPast duration 0.833321 too large\nPast duration 0.666664 too large\nPast duration 0.833321 too large\nPast duration 0.666664 too large\nPast duration 0.833321 too large\nPast duration 0.666664 too large\nPast duration 0.833321 too large\nPast duration 0.666664 too large\nPast duration 0.833321 too large\nPast duration 0.666664 too large\nPast duration 0.833321 too large\nPast duration 0.666664 too large\nPast duration 0.833321 too large\nPast duration 0.666664 too large\nPast duration 0.833321 too large\nPast duration 0.666664 too large\nPast duration 0.833321 too large\nPast duration 0.666664 too large\nPast duration 0.833321 too large\nPast duration 0.666664 too large\nPast duration 0.833321 too large\nPast duration 0.666664 too large\nPast duration 0.833321 too large\nPast duration 0.666664 too large\nPast duration 0.833321 too large\nPast duration 0.666664 too large\nPast duration 0.833321 too large\nPast duration 0.666664 too large\nPast duration 0.833321 too large\nPast duration 0.666664 too large\nPast duration 0.833321 too large\nPast duration 0.666664 too large\nPast duration 0.833321 too large\nPast duration 0.666664 too large\nPast duration 0.833321 too large\nPast duration 0.666664 too large\nPast duration 0.833321 too large\nPast duration 0.666664 too large\nPast duration 0.833321 too large\nPast duration 0.666664 too large\nPast duration 0.833321 too large\nPast duration 0.666664 too large\nPast duration 0.833321 too large\nPast duration 0.666664 too large\nPast duration 0.833321 too large\nPast duration 0.666664 too large\nPast duration 0.833321 too large\nPast duration 0.666664 too large\nPast duration 0.833321 too large\nPast duration 0.666664 too large\nPast duration 0.833321 too large\nPast duration 0.666664 too large\nPast duration 0.833321 too large\nPast duration 0.666664 too large\nPast duration 0.833321 too large\nPast duration 0.666664 too large\nPast duration 0.833321 too large\nPast duration 0.666664 too large\nPast duration 0.833321 too large\nPast duration 0.666664 too large\nPast duration 0.833321 too large\nPast duration 0.666664 too large\nPast duration 0.833321 too large\nPast duration 0.666664 too large\nPast duration 0.833321 too large\nPast duration 0.666664 too large\nPast duration 0.833321 too large\nPast duration 0.666664 too large\nPast duration 0.833321 too large\nPast duration 0.666664 too large\nPast duration 0.833321 too large\nPast duration 0.666664 too large\nPast duration 0.833321 too large\nPast duration 0.666664 too large\nPast duration 0.833321 too large\nPast duration 0.666664 too large\nPast duration 0.833321 too large\nPast duration 0.666664 too large\nPast duration 0.833321 too large\nPast duration 0.666664 too large\nPast duration 0.833321 too large\nframe=  348 fps=347 q=27.0 size=     843kB time=00:00:14.04 bitrate= 491.6kbits/s dup=0 drop=68 speed=  14x    \rPast duration 0.666664 too large\nPast duration 0.833321 too large\nPast duration 0.666664 too large\nPast duration 0.833321 too large\nPast duration 0.666664 too large\nPast duration 0.833321 too large\nPast duration 0.666664 too large\nPast duration 0.833321 too large\nPast duration 0.666664 too large\nPast duration 0.833321 too large\nPast duration 0.666664 too large\nPast duration 0.833321 too large\nPast duration 0.666664 too large\nPast duration 0.833321 too large\nPast duration 0.666664 too large\nPast duration 0.833321 too large\nPast duration 0.666664 too large\nPast duration 0.833321 too large\nPast duration 0.666664 too large\nPast duration 0.833321 too large\nPast duration 0.666664 too large\nPast duration 0.833321 too large\nPast duration 0.666664 too large\nPast duration 0.833321 too large\nPast duration 0.666664 too large\nPast duration 0.833321 too large\nPast duration 0.666664 too large\nPast duration 0.833321 too large\nPast duration 0.666664 too large\nPast duration 0.833321 too large\nPast duration 0.666664 too large\nPast duration 0.833321 too large\nPast duration 0.666664 too large\nPast duration 0.833321 too large\nPast duration 0.666664 too large\nPast duration 0.833321 too large\nPast duration 0.666664 too large\nPast duration 0.833321 too large\nPast duration 0.666664 too large\nPast duration 0.833321 too large\nPast duration 0.666664 too large\nPast duration 0.833321 too large\nPast duration 0.666664 too large\nPast duration 0.833321 too large\nPast duration 0.666664 too large\nPast duration 0.833321 too large\nPast duration 0.666664 too large\nPast duration 0.833321 too large\nPast duration 0.666664 too large\nPast duration 0.833321 too large\nPast duration 0.666664 too large\nPast duration 0.833321 too large\nPast duration 0.666664 too large\nPast duration 0.833321 too large\nPast duration 0.666664 too large\nPast duration 0.833321 too large\nPast duration 0.666664 too large\nPast duration 0.833321 too large\nPast duration 0.666664 too large\nPast duration 0.833321 too large\nPast duration 0.666664 too large\nPast duration 0.833321 too large\nPast duration 0.666664 too large\nPast duration 0.833321 too large\nPast duration 0.666664 too large\nPast duration 0.833321 too large\nPast duration 0.666664 too large\nPast duration 0.833321 too large\nPast duration 0.666664 too large\nPast duration 0.833321 too large\nPast duration 0.666664 too large\nPast duration 0.833321 too large\nPast duration 0.666664 too large\nPast duration 0.833321 too large\nPast duration 0.666664 too large\nPast duration 0.833321 too large\nPast duration 0.666664 too large\nPast duration 0.833321 too large\nPast duration 0.666664 too large\nPast duration 0.833321 too large\nPast duration 0.666664 too large\nPast duration 0.833321 too large\nPast duration 0.666664 too large\nPast duration 0.833321 too large\nPast duration 0.666664 too large\nframe=  560 fps=372 q=28.0 size=    1426kB time=00:00:22.54 bitrate= 518.3kbits/s dup=0 drop=111 speed=  15x    \rPast duration 0.833321 too large\nPast duration 0.666664 too large\nPast duration 0.833321 too large\nPast duration 0.666664 too large\nPast duration 0.833321 too large\nPast duration 0.666664 too large\nPast duration 0.833321 too large\nPast duration 0.666664 too large\nPast duration 0.833321 too large\nPast duration 0.666664 too large\nPast duration 0.833321 too large\nPast duration 0.666664 too large\nPast duration 0.833321 too large\nPast duration 0.666664 too large\nPast duration 0.833321 too large\nPast duration 0.666664 too large\nPast duration 0.833321 too large\nPast duration 0.666664 too large\nPast duration 0.833321 too large\nPast duration 0.666664 too large\nPast duration 0.833321 too large\nPast duration 0.666664 too large\nPast duration 0.833321 too large\nPast duration 0.666664 too large\nPast duration 0.833321 too large\nPast duration 0.666664 too large\nPast duration 0.833321 too large\nPast duration 0.666664 too large\nPast duration 0.833321 too large\nPast duration 0.666664 too large\nPast duration 0.833321 too large\nPast duration 0.666664 too large\nPast duration 0.833321 too large\nPast duration 0.666664 too large\nPast duration 0.833321 too large\nPast duration 0.666664 too large\nPast duration 0.833321 too large\nPast duration 0.666664 too large\nPast duration 0.833321 too large\nPast duration 0.666664 too large\nPast duration 0.833321 too large\nPast duration 0.666664 too large\nPast duration 0.833321 too large\nPast duration 0.666664 too large\nPast duration 0.833321 too large\nPast duration 0.666664 too large\nPast duration 0.833321 too large\nPast duration 0.666664 too large\nPast duration 0.833321 too large\nPast duration 0.666664 too large\nPast duration 0.833321 too large\nPast duration 0.666664 too large\nframe=  690 fps=344 q=23.0 size=    1779kB time=00:00:27.79 bitrate= 524.4kbits/s dup=0 drop=137 speed=13.9x    \rPast duration 0.833321 too large\nPast duration 0.666664 too large\nPast duration 0.833321 too large\nPast duration 0.666664 too large\nPast duration 0.833321 too large\nPast duration 0.666664 too large\nPast duration 0.833321 too large\nPast duration 0.666664 too large\nPast duration 0.833321 too large\nPast duration 0.666664 too large\nPast duration 0.833321 too large\nPast duration 0.666664 too large\nPast duration 0.833321 too large\nPast duration 0.666664 too large\nPast duration 0.833321 too large\nPast duration 0.666664 too large\nPast duration 0.833321 too large\nPast duration 0.666664 too large\nPast duration 0.833321 too large\nPast duration 0.666664 too large\nPast duration 0.833321 too large\nPast duration 0.666664 too large\nPast duration 0.833321 too large\nPast duration 0.666664 too large\nPast duration 0.833321 too large\nPast duration 0.666664 too large\nPast duration 0.833321 too large\nPast duration 0.666664 too large\nPast duration 0.833321 too large\nPast duration 0.666664 too large\nPast duration 0.833321 too large\nPast duration 0.666664 too large\nPast duration 0.833321 too large\nPast duration 0.666664 too large\nPast duration 0.833321 too large\nPast duration 0.666664 too large\nPast duration 0.833321 too large\nPast duration 0.666664 too large\nPast duration 0.833321 too large\nPast duration 0.666664 too large\nPast duration 0.833321 too large\nPast duration 0.666664 too large\nPast duration 0.833321 too large\nPast duration 0.666664 too large\nPast duration 0.833321 too large\nPast duration 0.666664 too large\nPast duration 0.833321 too large\nPast duration 0.666664 too large\nPast duration 0.833321 too large\nPast duration 0.666664 too large\nPast duration 0.833321 too large\nframe=  819 fps=327 q=28.0 size=    2164kB time=00:00:32.90 bitrate= 538.8kbits/s dup=0 drop=162 speed=13.1x    \rPast duration 0.666664 too large\nPast duration 0.833321 too large\nPast duration 0.666664 too large\nPast duration 0.833321 too large\nPast duration 0.666664 too large\nPast duration 0.833321 too large\nPast duration 0.666664 too large\nPast duration 0.833321 too large\nPast duration 0.666664 too large\nPast duration 0.833321 too large\nPast duration 0.666664 too large\nPast duration 0.833321 too large\nPast duration 0.666664 too large\nPast duration 0.833321 too large\nPast duration 0.666664 too large\nPast duration 0.833321 too large\nPast duration 0.666664 too large\nPast duration 0.833321 too large\nPast duration 0.666664 too large\nPast duration 0.833321 too large\nPast duration 0.666664 too large\nPast duration 0.833321 too large\nPast duration 0.666664 too large\nPast duration 0.833321 too large\nPast duration 0.666664 too large\nPast duration 0.833321 too large\nPast duration 0.666664 too large\nPast duration 0.833321 too large\nPast duration 0.666664 too large\nPast duration 0.833321 too large\nPast duration 0.666664 too large\nPast duration 0.833321 too large\nPast duration 0.666664 too large\nPast duration 0.833321 too large\nPast duration 0.666664 too large\nPast duration 0.833321 too large\nPast duration 0.666664 too large\nPast duration 0.833321 too large\nPast duration 0.666664 too large\nPast duration 0.833321 too large\nPast duration 0.666664 too large\nPast duration 0.833321 too large\nPast duration 0.666664 too large\nPast duration 0.833321 too large\nPast duration 0.666664 too large\nPast duration 0.833321 too large\nPast duration 0.666664 too large\nPast duration 0.833321 too large\nPast duration 0.666664 too large\nPast duration 0.833321 too large\nPast duration 0.666664 too large\nPast duration 0.833321 too large\nPast duration 0.666664 too large\nPast duration 0.833321 too large\nPast duration 0.666664 too large\nPast duration 0.833321 too large\nPast duration 0.666664 too large\nPast duration 0.833321 too large\nPast duration 0.666664 too large\nPast duration 0.833321 too large\nPast duration 0.666664 too large\nPast duration 0.833321 too large\nPast duration 0.666664 too large\nPast duration 0.833321 too large\nPast duration 0.666664 too large\nPast duration 0.833321 too large\nPast duration 0.666664 too large\nPast duration 0.833321 too large\nPast duration 0.666664 too large\nPast duration 0.833321 too large\nframe=  991 fps=330 q=27.0 size=    2636kB time=00:00:39.82 bitrate= 542.4kbits/s dup=0 drop=197 speed=13.2x    \rPast duration 0.666664 too large\nPast duration 0.833321 too large\nPast duration 0.666664 too large\nPast duration 0.833321 too large\nPast duration 0.666664 too large\nPast duration 0.833321 too large\nPast duration 0.666664 too large\nPast duration 0.833321 too large\nPast duration 0.666664 too large\nPast duration 0.833321 too large\nPast duration 0.666664 too large\nPast duration 0.833321 too large\nPast duration 0.666664 too large\nPast duration 0.833321 too large\nPast duration 0.666664 too large\nPast duration 0.833321 too large\nPast duration 0.666664 too large\nPast duration 0.833321 too large\nPast duration 0.666664 too large\nPast duration 0.833321 too large\nPast duration 0.666664 too large\nPast duration 0.833321 too large\nPast duration 0.666664 too large\nPast duration 0.833321 too large\nPast duration 0.666664 too large\nPast duration 0.833321 too large\nPast duration 0.666664 too large\nPast duration 0.833321 too large\nPast duration 0.666664 too large\nPast duration 0.833321 too large\nPast duration 0.666664 too large\nPast duration 0.833321 too large\nPast duration 0.666664 too large\nPast duration 0.833321 too large\nPast duration 0.666664 too large\nPast duration 0.833321 too large\nPast duration 0.666664 too large\nPast duration 0.833321 too large\nPast duration 0.666664 too large\nPast duration 0.833321 too large\nPast duration 0.666664 too large\nPast duration 0.833321 too large\nPast duration 0.666664 too large\nPast duration 0.833321 too large\nPast duration 0.666664 too large\nPast duration 0.833321 too large\nPast duration 0.666664 too large\nPast duration 0.833321 too large\nPast duration 0.666664 too large\nPast duration 0.833321 too large\nPast duration 0.666664 too large\nPast duration 0.833321 too large\nPast duration 0.666664 too large\nPast duration 0.833321 too large\nPast duration 0.666664 too large\nPast duration 0.833321 too large\nPast duration 0.666664 too large\nPast duration 0.833321 too large\nPast duration 0.666664 too large\nPast duration 0.833321 too large\nPast duration 0.666664 too large\nPast duration 0.833321 too large\nPast duration 0.666664 too large\nPast duration 0.833321 too large\nPast duration 0.666664 too large\nPast duration 0.833321 too large\nPast duration 0.666664 too large\nPast duration 0.833321 too large\nPast duration 0.666664 too large\nPast duration 0.833321 too large\nPast duration 0.666664 too large\nPast duration 0.833321 too large\nPast duration 0.666664 too large\nPast duration 0.833321 too large\nframe= 1179 fps=336 q=33.0 size=    3173kB time=00:00:47.34 bitrate= 549.1kbits/s dup=0 drop=234 speed=13.5x    \rPast duration 0.666664 too large\nPast duration 0.833321 too large\nPast duration 0.666664 too large\nPast duration 0.833321 too large\nPast duration 0.666664 too large\nPast duration 0.833321 too large\nPast duration 0.666664 too large\nPast duration 0.833321 too large\nPast duration 0.666664 too large\nPast duration 0.833321 too large\nPast duration 0.666664 too large\nPast duration 0.833321 too large\nPast duration 0.666664 too large\nPast duration 0.833321 too large\nPast duration 0.666664 too large\nPast duration 0.833321 too large\nPast duration 0.666664 too large\nPast duration 0.833321 too large\nPast duration 0.666664 too large\nPast duration 0.833321 too large\nPast duration 0.666664 too large\nPast duration 0.833321 too large\nPast duration 0.666664 too large\nPast duration 0.833321 too large\nPast duration 0.666664 too large\nPast duration 0.833321 too large\nPast duration 0.666664 too large\nPast duration 0.833321 too large\nPast duration 0.666664 too large\nPast duration 0.833321 too large\nPast duration 0.666664 too large\nPast duration 0.833321 too large\nPast duration 0.666664 too large\nPast duration 0.833321 too large\nPast duration 0.666664 too large\nPast duration 0.833321 too large\nPast duration 0.666664 too large\nPast duration 0.833321 too large\nPast duration 0.666664 too large\nPast duration 0.833321 too large\nPast duration 0.666664 too large\nPast duration 0.833321 too large\nPast duration 0.666664 too large\nPast duration 0.833321 too large\nPast duration 0.666664 too large\nPast duration 0.833321 too large\nPast duration 0.666664 too large\nPast duration 0.833321 too large\nPast duration 0.666664 too large\nPast duration 0.833321 too large\nPast duration 0.666664 too large\nPast duration 0.833321 too large\nPast duration 0.666664 too large\nPast duration 0.833321 too large\nPast duration 0.666664 too large\nPast duration 0.833321 too large\nPast duration 0.666664 too large\nPast duration 0.833321 too large\nPast duration 0.666664 too large\nPast duration 0.833321 too large\nPast duration 0.666664 too large\nPast duration 0.833321 too large\nPast duration 0.666664 too large\nPast duration 0.833321 too large\nPast duration 0.666664 too large\nPast duration 0.833321 too large\nPast duration 0.666664 too large\nPast duration 0.833321 too large\nPast duration 0.666664 too large\nPast duration 0.833321 too large\nPast duration 0.666664 too large\nPast duration 0.833321 too large\nPast duration 0.666664 too large\nPast duration 0.833321 too large\nPast duration 0.666664 too large\nPast duration 0.833321 too large\nPast duration 0.666664 too large\nPast duration 0.833321 too large\nPast duration 0.666664 too large\nPast duration 0.833321 too large\nPast duration 0.666664 too large\nPast duration 0.833321 too large\nPast duration 0.666664 too large\nPast duration 0.833321 too large\nPast duration 0.666664 too large\nPast duration 0.833321 too large\nPast duration 0.666664 too large\nPast duration 0.833321 too large\nframe= 1396 fps=348 q=32.0 size=    3762kB time=00:00:55.98 bitrate= 550.5kbits/s dup=0 drop=278 speed=  14x    \rPast duration 0.666664 too large\nPast duration 0.833321 too large\nPast duration 0.666664 too large\nPast duration 0.833321 too large\nPast duration 0.666664 too large\nPast duration 0.833321 too large\nPast duration 0.666664 too large\nPast duration 0.833321 too large\nPast duration 0.666664 too large\nPast duration 0.833321 too large\nPast duration 0.666664 too large\nPast duration 0.833321 too large\nPast duration 0.666664 too large\nPast duration 0.833321 too large\nPast duration 0.666664 too large\nPast duration 0.833321 too large\nPast duration 0.666664 too large\nPast duration 0.833321 too large\nPast duration 0.666664 too large\nPast duration 0.833321 too large\nPast duration 0.666664 too large\nPast duration 0.833321 too large\nPast duration 0.666664 too large\nPast duration 0.833321 too large\nPast duration 0.666664 too large\nPast duration 0.833321 too large\nPast duration 0.666664 too large\nPast duration 0.833321 too large\nPast duration 0.666664 too large\nPast duration 0.833321 too large\nPast duration 0.666664 too large\nPast duration 0.833321 too large\nPast duration 0.666664 too large\nPast duration 0.833321 too large\nPast duration 0.666664 too large\nPast duration 0.833321 too large\nPast duration 0.666664 too large\nPast duration 0.833321 too large\nPast duration 0.666664 too large\nPast duration 0.833321 too large\nPast duration 0.666664 too large\nPast duration 0.833321 too large\nPast duration 0.666664 too large\nPast duration 0.833321 too large\nPast duration 0.666664 too large\nPast duration 0.833321 too large\nPast duration 0.666664 too large\nPast duration 0.833321 too large\nPast duration 0.666664 too large\nPast duration 0.833321 too large\nPast duration 0.666664 too large\nPast duration 0.833321 too large\nPast duration 0.666664 too large\nPast duration 0.833321 too large\nPast duration 0.666664 too large\nPast duration 0.833321 too large\nPast duration 0.666664 too large\nPast duration 0.833321 too large\nPast duration 0.666664 too large\nPast duration 0.833321 too large\nPast duration 0.666664 too large\nPast duration 0.833321 too large\nPast duration 0.666664 too large\nPast duration 0.833321 too large\nPast duration 0.666664 too large\nPast duration 0.833321 too large\nPast duration 0.666664 too large\nPast duration 0.833321 too large\nPast duration 0.666664 too large\nPast duration 0.833321 too large\nPast duration 0.666664 too large\nPast duration 0.833321 too large\nPast duration 0.666664 too large\nPast duration 0.833321 too large\nPast duration 0.666664 too large\nPast duration 0.833321 too large\nPast duration 0.666664 too large\nPast duration 0.833321 too large\nPast duration 0.666664 too large\nPast duration 0.833321 too large\nPast duration 0.666664 too large\nPast duration 0.833321 too large\nPast duration 0.666664 too large\nPast duration 0.833321 too large\nPast duration 0.666664 too large\nPast duration 0.833321 too large\nPast duration 0.666664 too large\nPast duration 0.833321 too large\nframe= 1617 fps=359 q=23.0 size=    4339kB time=00:01:04.85 bitrate= 548.1kbits/s dup=0 drop=322 speed=14.4x    \rPast duration 0.666664 too large\nPast duration 0.833321 too large\nPast duration 0.666664 too large\nPast duration 0.833321 too large\nPast duration 0.666664 too large\nPast duration 0.833321 too large\nPast duration 0.666664 too large\nPast duration 0.833321 too large\nPast duration 0.666664 too large\nPast duration 0.833321 too large\nPast duration 0.666664 too large\nPast duration 0.833321 too large\nPast duration 0.666664 too large\nPast duration 0.833321 too large\nPast duration 0.666664 too large\nPast duration 0.833321 too large\nPast duration 0.666664 too large\nPast duration 0.833321 too large\nPast duration 0.666664 too large\nPast duration 0.833321 too large\nPast duration 0.666664 too large\nPast duration 0.833321 too large\nPast duration 0.666664 too large\nPast duration 0.833321 too large\nPast duration 0.666664 too large\nPast duration 0.833321 too large\nPast duration 0.666664 too large\nPast duration 0.833321 too large\nPast duration 0.666664 too large\nPast duration 0.833321 too large\nPast duration 0.666664 too large\nPast duration 0.833321 too large\nframe= 1698 fps=354 q=-1.0 Lsize=    4726kB time=00:01:08.08 bitrate= 568.6kbits/s dup=0 drop=338 speed=14.2x    \nvideo:4145kB audio:537kB subtitle:0kB other streams:0kB global headers:0kB muxing overhead: 0.936475%\n[libx264 @ 0x7f940a801200] frame I:55    Avg QP:19.41  size:  8890\n[libx264 @ 0x7f940a801200] frame P:1643  Avg QP:23.43  size:  2285\n[libx264 @ 0x7f940a801200] mb I  I16..4: 41.4%  0.0% 58.6%\n[libx264 @ 0x7f940a801200] mb P  I16..4:  7.9%  0.0%  3.5%  P16..4: 37.9%  9.1%  2.3%  0.0%  0.0%    skip:39.4%\n[libx264 @ 0x7f940a801200] coded y,uvDC,uvAC intra: 31.3% 78.4% 29.0% inter: 8.9% 36.3% 1.5%\n[libx264 @ 0x7f940a801200] i16 v,h,dc,p: 23% 31% 14% 32%\n[libx264 @ 0x7f940a801200] i4 v,h,dc,ddl,ddr,vr,hd,vl,hu: 25% 29% 21%  4%  5%  5%  4%  3%  5%\n[libx264 @ 0x7f940a801200] i8c dc,h,v,p: 61% 18% 18%  4%\n[libx264 @ 0x7f940a801200] ref P L0: 78.8% 21.2%\n[libx264 @ 0x7f940a801200] kb/s:499.88\n[aac @ 0x7f9408817e00] Qavg: 520.718\n",
	"files": [
		{
			"name": "30012011_002-360p.mp4",
			"format": "mp4",
			"scale": "-2:360"
		}
	],
	"outputStream": "",
	"progress": {
		"percent": 100,
		"elapsed": "00:00:04",
		"estimate": "00:00:04"
	}
}